<svg width="19" height="19" viewBox="0 0 19 19" fill="none" xmlns="http://www.w3.org/2000/svg">
<g clip-path="url(#clip0)">
<path d="M18.884 9.2201L12.9465 3.2826C12.7919 3.12797 12.5414 3.12797 12.3868 3.2826C12.2322 3.43724 12.2322 3.68773 12.3868 3.84232L17.6486 9.10413H0.395846C0.177049 9.10413 0 9.28118 0 9.49998C0 9.71878 0.177049 9.89582 0.395846 9.89582H17.6486L12.3868 15.1576C12.2322 15.3122 12.2322 15.5627 12.3868 15.7173C12.4641 15.7946 12.5654 15.8333 12.6667 15.8333C12.768 15.8333 12.8692 15.7946 12.9466 15.7173L18.8841 9.77982C19.0387 9.62522 19.0387 9.37474 18.884 9.2201Z" fill="white"/>
</g>
<defs>
<clipPath id="clip0">
<rect width="19" height="19" fill="white"/>
</clipPath>
</defs>
</svg>
