<?xml version="1.0" encoding="UTF-8"?>
<svg xmlns="http://www.w3.org/2000/svg" xmlns:xlink="http://www.w3.org/1999/xlink" width="24pt" height="24pt" viewBox="0 0 24 24" version="1.1">
<g id="surface33039214">
<path style=" stroke:none;fill-rule:nonzero;fill:rgb(100%,100%,100%);fill-opacity:1;" d="M 19.585938 5.007812 C 20.429688 5.007812 20.652344 5.644531 20.402344 7.144531 C 20.117188 8.855469 19.296875 14.527344 18.640625 18.058594 C 18.386719 19.410156 17.9375 19.992188 17.277344 19.992188 C 16.914062 19.992188 16.492188 19.816406 16.003906 19.496094 C 15.34375 19.058594 12.011719 16.855469 11.289062 16.339844 C 10.628906 15.867188 9.71875 15.300781 10.859375 14.183594 C 11.265625 13.785156 13.929688 11.242188 16.003906 9.261719 C 16.226562 9.050781 16.042969 8.726562 15.796875 8.726562 C 15.738281 8.726562 15.679688 8.742188 15.621094 8.78125 C 12.824219 10.636719 8.945312 13.210938 8.453125 13.546875 C 7.960938 13.882812 7.476562 14.097656 6.835938 14.097656 C 6.511719 14.097656 6.140625 14.042969 5.707031 13.917969 C 4.734375 13.636719 3.785156 13.304688 3.417969 13.179688 C 1.992188 12.691406 2.332031 12.058594 3.714844 11.449219 C 9.253906 9.011719 16.417969 6.042969 17.410156 5.632812 C 18.371094 5.230469 19.089844 5.007812 19.585938 5.007812 M 19.585938 3.507812 C 18.902344 3.507812 18.078125 3.726562 16.835938 4.246094 L 16.683594 4.308594 C 11.367188 6.515625 6.546875 8.5625 3.109375 10.074219 C 2.570312 10.3125 0.9375 11.03125 1.003906 12.535156 C 1.027344 13.183594 1.386719 14.066406 2.929688 14.597656 L 3.042969 14.636719 C 3.476562 14.785156 4.371094 15.09375 5.292969 15.359375 C 5.851562 15.519531 6.359375 15.597656 6.839844 15.597656 C 7.671875 15.597656 8.316406 15.359375 8.820312 15.082031 C 8.816406 15.167969 8.816406 15.25 8.824219 15.335938 C 8.914062 16.492188 9.808594 17.125 10.34375 17.503906 L 10.417969 17.558594 C 11.207031 18.121094 14.773438 20.480469 15.179688 20.746094 C 15.941406 21.246094 16.625 21.492188 17.277344 21.492188 C 18.304688 21.492188 19.628906 20.945312 20.113281 18.332031 C 20.574219 15.855469 21.109375 12.398438 21.496094 9.871094 C 21.660156 8.792969 21.796875 7.910156 21.882812 7.390625 C 22.058594 6.34375 22.136719 5.15625 21.410156 4.296875 C 21.105469 3.9375 20.539062 3.507812 19.585938 3.507812 Z M 19.585938 3.507812 "/>
</g>
</svg>
